*********** **** **** *** ******** *********** **** *** **********

*+* +*+*+* *+*+*+ *+* *+* *+* *+* *+* *+*+* *+* *+* 

+*+ +*+ +*+*+ +*+ +*+ +*+ +*+ +*+ *+*+*+ +*+ +*+ 

+$+ +$+ +*+ +$+ +$++*++$++* *$* +$+ +$+ +*+ +$+ +$++*++$ 

+$+ +$+ +$+ +$+ +$+ +$+ +$+$ +$+ +$+ +$+$+$ +$+ 

$+$ $+$ $+$ $+$ $+$ $+$ $+$ $+$ $+$ $+$+$ $+$ 

$$$$$$$$$$$ $$$ $$$ $$$ $$$ $$$$$$$$ $$$$$$$$$$$ $$$ $$$$ $$$$$$$$$$ 









Another Fine Release Brought to you from - IMAGiNE 





******************************************************************************************************************** 

Animal Kingdom DVDRiP AC3 XViD - IMAGiNE

********************************************************************************************************************



Ripper ...........: IMAGiNE IMDB Rating.......:8.2/10 

Video Codec.......: XVID Release Date......:12/10/10

Audio Codec.......:AC3 Theatre Date......:26/09/10

Audio Bitrate.....:448 Runtime.......:1h 48mn

Subtitles.........:NIL Language..........:ENGLISH

Resolution...... 720x 304 IMDb URL.......... http://www.imdb.com/title/tt1313092/



DETAILS:



Video

ID : 0

Format : MPEG-4 Visual

Format profile : Advanced Simple@L5

Format settings, BVOP : Yes

Format settings, QPel : No

Format settings, GMC : No warppoints

Format settings, Matrix : Default (H.263)

Muxing mode : Packed bitstream

Codec ID : XVID

Codec ID/Hint : XviD

Duration : 1h 48mn

Bit rate : 1 358 Kbps

Width : 720 pixels

Height : 304 pixels

Display aspect ratio : 2.35

Frame rate : 25.000 fps

Resolution : 24 bits

Colorimetry : 4:2:0

Scan type : Progressive

Bits/(Pixel*Frame) : 0.248

Stream size : 1.03 GiB (75%)

Writing library : XviD 1.1.2 (UTC 2006-11-01)



Audio

ID : 1

Format : AC-3

Format/Info : Audio Coding 3

Codec ID : 2000

Duration : 1h 48mn

Bit rate mode : Constant

Bit rate : 448 Kbps

Channel(s) : 6 channels

Channel positions : Front: L C R, Surround: L R, LFE

Sampling rate : 48.0 KHz

Stream size : 347 MiB (25%)

Alignment : Aligned on interleaves

Interleave, duration : 40 ms (1.00 video frame)

Interleave, preload duration : 512 ms





SOURCES:



VIDEO:Animal Kingdom DVDR ..............Thanks Boobies 

AUDIO:Animal Kingdom DVDR ..............Thanks Boobies



NOTES:



IMAGiNE bringing you another release..........Animal Kingdom



Heres a rip of the retail dvdr now.....after we brought you the dvdscr 7 days ago.

This is a straight forward rip of the dvdr with some slight tweaking inc brightness,chroma,sharpeness

The audio was just demuxed from the dvdr and then remuxed to our rip afterwards.



Enjoy folks